<svg xmlns="http://www.w3.org/2000/svg" version="1.1" viewBox="-5.0 -10.0 110.0 135.0">
 <path d="m44.688 74.828-13.23 22.918c-0.26953 0.46484-0.78906 0.73047-1.3281 0.67969-0.53516-0.054687-0.99219-0.41797-1.1641-0.92969l-3.7461-11.156-11.543 2.3242c-0.52734 0.10938-1.0703-0.10547-1.3867-0.54297-0.3125-0.4375-0.34375-1.0195-0.074218-1.4883l13.062-22.617-0.03125-4.3242c-0.007813-0.96094-0.625-1.8086-1.5352-2.1133l-7.1797-2.3906c-1.5039-0.5-2.6797-1.6875-3.168-3.1914-0.48828-1.5078-0.23438-3.1562 0.6875-4.4453l4.4023-6.1523c0.55859-0.78125 0.55859-1.832 0-2.6133l-4.4023-6.1523c-0.92188-1.2891-1.1758-2.9375-0.6875-4.4453s1.6641-2.6914 3.168-3.1914l7.1797-2.3906c0.91016-0.30469 1.5273-1.1523 1.5352-2.1133l0.054687-7.5664c0.011719-1.5859 0.77344-3.0703 2.0547-4 1.2812-0.92969 2.9297-1.1992 4.4414-0.71875l7.2109 2.2852c0.91797 0.28906 1.9141-0.035157 2.4844-0.80859l4.4922-6.0898c0.94141-1.2734 2.4297-2.0234 4.0156-2.0234s3.0742 0.75 4.0156 2.0234l4.4922 6.0898c0.57031 0.77344 1.5664 1.0977 2.4844 0.80859l7.2109-2.2852c1.5117-0.48047 3.1602-0.21094 4.4414 0.71875 1.2812 0.92969 2.043 2.4141 2.0547 4l0.054687 7.5664c0.007813 0.96094 0.625 1.8086 1.5352 2.1133l7.1797 2.3906c1.5039 0.5 2.6797 1.6836 3.168 3.1914s0.23438 3.1562-0.6875 4.4453l-4.4023 6.1523c-0.55859 0.78125-0.55859 1.832 0 2.6133l4.4023 6.1523c0.92188 1.2891 1.1758 2.9375 0.6875 4.4453-0.48828 1.5039-1.6641 2.6914-3.168 3.1914l-7.1797 2.3906c-0.91016 0.30469-1.5273 1.1523-1.5352 2.1133l-0.03125 4.3242 13.062 22.617c0.26953 0.46875 0.23828 1.0508-0.074218 1.4883-0.31641 0.4375-0.85938 0.65234-1.3867 0.54297l-11.543-2.3242-3.7461 11.156c-0.17188 0.51172-0.62891 0.875-1.1641 0.92969-0.53906 0.050781-1.0586-0.21484-1.3281-0.67969l-13.23-22.918-1.2969 1.7578c-0.94141 1.2734-2.4297 2.0273-4.0156 2.0273s-3.0742-0.75391-4.0156-2.0273zm-19.082-5.8906-9.4922 16.438 9.7461-1.9688c0.67969-0.13672 1.3555 0.25391 1.5742 0.91016l3.168 9.4219 12.309-21.32-1.418-1.9219c-0.57031-0.76953-1.5664-1.0938-2.4844-0.80469l-7.2109 2.2852c-1.5117 0.47656-3.1602 0.21094-4.4414-0.71875-0.80859-0.58984-1.4141-1.4023-1.75-2.3203zm22.59-63.711-4.4922 6.0859c-1.2695 1.7188-3.4883 2.4414-5.5234 1.7969l-7.2109-2.2852c-0.67969-0.21484-1.4219-0.097657-2 0.32422-0.57422 0.41797-0.91797 1.0859-0.92188 1.7969l-0.058594 7.5664c-0.015625 2.1328-1.3867 4.0234-3.4102 4.6953l-7.1797 2.3906c-0.67578 0.22656-1.2031 0.76172-1.4258 1.4375-0.21875 0.67969-0.10547 1.418 0.30859 2l4.4023 6.1523c1.2422 1.7383 1.2422 4.0703 0 5.8047l-4.4023 6.1562c-0.41406 0.57812-0.52734 1.3203-0.30859 2 0.22266 0.67578 0.75 1.207 1.4258 1.4336l7.1797 2.3906c2.0234 0.67578 3.3945 2.5625 3.4102 4.6992l0.058594 7.5664c0.003906 0.71094 0.34766 1.3789 0.92188 1.7969 0.57812 0.41797 1.3203 0.53906 2 0.32422l7.2109-2.2852c2.0352-0.64453 4.2539 0.078125 5.5234 1.793l4.4922 6.0898c0.42188 0.57422 1.0938 0.91016 1.8047 0.91016s1.3828-0.33594 1.8047-0.91016l4.4922-6.0898c1.2695-1.7148 3.4883-2.4375 5.5234-1.793l7.2109 2.2852c0.67969 0.21484 1.4219 0.09375 2-0.32422 0.57422-0.41797 0.91797-1.0859 0.92188-1.7969l0.058594-7.5664c0.015625-2.1367 1.3867-4.0234 3.4102-4.6992l7.1797-2.3906c0.67578-0.22656 1.2031-0.75781 1.4258-1.4336 0.21875-0.67969 0.10547-1.4219-0.30859-2l-4.4023-6.1562c-1.2422-1.7344-1.2422-4.0664 0-5.8047l4.4023-6.1523c0.41406-0.58203 0.52734-1.3203 0.30859-2-0.22266-0.67578-0.75-1.2109-1.4258-1.4375l-7.1797-2.3906c-2.0234-0.67188-3.3945-2.5625-3.4102-4.6953l-0.058594-7.5664c-0.003906-0.71094-0.34766-1.3789-0.92188-1.7969-0.57812-0.42188-1.3203-0.53906-2-0.32422l-7.2109 2.2852c-2.0352 0.64453-4.2539-0.078125-5.5234-1.7969l-4.4922-6.0859c-0.42188-0.57422-1.0938-0.91406-1.8047-0.91406s-1.3828 0.33984-1.8047 0.91406zm1.8008 58.586c-13.059 0-23.719-10.656-23.719-23.723 0-13.062 10.66-23.723 23.719-23.723 13.066 0 23.727 10.66 23.727 23.723 0 13.066-10.66 23.723-23.727 23.723zm0-2.7422c11.555 0 20.98-9.4258 20.98-20.98 0-11.551-9.4258-20.977-20.98-20.977-11.547 0-20.973 9.4258-20.973 20.977 0 11.555 9.4258 20.98 20.973 20.98zm0-2.793c-10.012 0-18.184-8.1719-18.184-18.188s8.1719-18.188 18.184-18.188c10.02 0 18.191 8.1719 18.191 18.188s-8.1719 18.188-18.191 18.188zm0-2.7422c8.5078 0 15.445-6.9414 15.445-15.445s-6.9375-15.441-15.445-15.441c-8.5 0-15.438 6.9375-15.438 15.441s6.9375 15.445 15.438 15.445zm1.2344-25.949 2.6484 5.3633 5.9219 0.86328c0.51562 0.074219 0.94531 0.43359 1.1094 0.93359 0.16016 0.49609 0.027344 1.043-0.34766 1.4062l-4.2852 4.1758 1.0117 5.8984c0.085938 0.51563-0.125 1.0352-0.54687 1.3438-0.42188 0.30469-0.98438 0.34766-1.4453 0.10547l-5.2969-2.7852-5.2969 2.7852c-0.46094 0.24219-1.0234 0.19922-1.4453-0.10547-0.42187-0.30859-0.63281-0.82812-0.54687-1.3438l1.0117-5.8984-4.2852-4.1758c-0.375-0.36328-0.50781-0.91016-0.34766-1.4062 0.16406-0.5 0.59375-0.85938 1.1094-0.93359l5.9219-0.86328 2.6484-5.3633c0.23047-0.46875 0.70703-0.76563 1.2305-0.76563s1 0.29688 1.2305 0.76563zm-1.2305 3.707-1.7383 3.5195c-0.19922 0.40625-0.58594 0.68359-1.0312 0.75l-3.8867 0.56641 2.8125 2.7383c0.32422 0.31641 0.47266 0.76953 0.39453 1.2148l-0.66406 3.8672 3.4766-1.8242c0.39844-0.21094 0.875-0.21094 1.2734 0l3.4766 1.8242-0.66406-3.8672c-0.078125-0.44531 0.070312-0.89844 0.39453-1.2148l2.8125-2.7383-3.8867-0.56641c-0.44531-0.066406-0.83203-0.34375-1.0312-0.75zm24.395 35.645c-0.33594 0.91797-0.94141 1.7305-1.75 2.3203-1.2812 0.92969-2.9297 1.1953-4.4414 0.71875l-7.2109-2.2852c-0.91797-0.28906-1.9141 0.035156-2.4844 0.80469l-1.418 1.9219 12.309 21.32 3.168-9.4219c0.21875-0.65625 0.89453-1.0469 1.5742-0.91016l9.7461 1.9688z" fill-rule="evenodd"/>
<text x="0.0" y="117.5" font-size="5.0" font-weight="bold" font-family="Arbeit Regular, Helvetica, Arial-Unicode, Arial, Sans-serif" fill="#000000">Created by Puspito</text><text x="0.0" y="122.5" font-size="5.0" font-weight="bold" font-family="Arbeit Regular, Helvetica, Arial-Unicode, Arial, Sans-serif" fill="#000000">from Noun Project</text></svg>