<svg xmlns="http://www.w3.org/2000/svg" version="1.1" viewBox="-5.0 -10.0 110.0 135.0">
 <path d="m61.758 20.453c-10.988-11.316-30.637-11.207-41.492 0.23828-18.25 18.391-5.043 50.02 20.863 49.969 26.02 0.10547 39.18-31.949 20.629-50.207zm-1.9805 39.297c-4.9062 4.9141-11.551 7.6914-18.496 7.7305-6.9414 0.042969-13.621-2.6602-18.582-7.5156-16.543-16.301-4.9414-44.77 18.281-44.863 23.168-0.22656 35.137 28.199 18.797 44.648z"/>
 <path d="m64.293 39.898-8.0703-6.0508c-5.3203-3.9648-11.992-5.6719-18.562-4.7461-4.2148 0.55859-8.2188 2.1953-11.621 4.7461l-8.0664 6.0508c-0.39453 0.33594-0.61719 0.82031-0.61719 1.3359 0 0.51172 0.22266 1 0.61719 1.3359l8.0703 6.0508h-0.003907c4.3672 3.2344 9.6562 4.9805 15.09 4.9805 5.4375 0 10.727-1.7461 15.094-4.9805l8.0703-6.0508c0.39062-0.33203 0.61719-0.82031 0.61719-1.3359s-0.22656-1-0.61719-1.3359zm-15.039-3.7188c0.13672 0.36719 0.10547 0.77734-0.085937 1.1211-0.19141 0.34375-0.52734 0.58203-0.91406 0.65625-0.38672 0.074219-0.78516-0.027343-1.0898-0.27734-0.30469-0.25-0.48437-0.61719-0.49219-1.0117-0.007813-0.64844 0.44922-1.2109 1.0859-1.332 0.63672-0.11719 1.2695 0.23437 1.4961 0.84375zm-27.859 5.0547 6.5156-4.8867 0.003906-0.003906c0.71094-0.52734 1.457-1.0078 2.2266-1.4453-2.2773 3.9453-2.2422 8.8164 0.097656 12.723-0.80469-0.44922-1.582-0.94922-2.3242-1.5zm17.199 9.1016c-8.8242-2.3125-9.3828-15.016-0.80859-18.109 2.6211-0.26172 5.5977-0.6875 8 0.59766h-0.003906c-1.0586 0.60547-1.8203 1.625-2.1055 2.8125-0.28906 1.1836-0.074219 2.4375 0.58984 3.4648 0.66406 1.0234 1.7188 1.7305 2.918 1.9531 1.2031 0.22266 2.4414-0.054688 3.4297-0.77344 0.65625 6.8984-5.5117 11.41-12.02 10.055zm15.758-4.2148h-0.003906c-0.74219 0.55078-1.5156 1.0508-2.3242 1.5 2.3398-3.9062 2.3789-8.7773 0.097656-12.719 1.6445 0.83984 7.1602 5.1992 8.7461 6.332z"/>
 <path d="m91.234 79.277-14.633-14.465c-0.61719-0.60156-1.5977-0.59375-2.207 0.011719l-0.79297 0.80078-4.0938-4.0469c4.2891-5.957 6.5703-13.121 6.5195-20.461-0.042969-30.832-38.078-46.332-59.715-24.332-8.3477 8.4375-11.832 20.539-9.25 32.121 2.582 11.586 10.875 21.062 22.016 25.152 11.141 4.0938 23.598 2.2383 33.062-4.9219l4.0391 3.9922-1.1641 1.1758 0.003906 0.003906c-0.60547 0.60938-0.60156 1.5898 0 2.1992l14.48 14.543c8.0039 7.5703 19.344-3.7734 11.734-11.773zm-15.719-11.145 13.523 13.367c1.6055 1.5859 1.9922 4.0312 0.95313 6.0352l-17.023-16.828c0.5625-0.52734 2.0117-2.0625 2.5469-2.5742zm-34.199 4.9609c-28.066 0.28125-42.59-34.168-22.781-54.113 19.824-20.012 54.234-5.9922 54.367 22.156 0.45312 17.074-14.508 32.211-31.586 31.957zm23.238-5.9609c1.0938-0.9375 2.1016-1.9688 3.0117-3.082l3.8398 3.7969-3.0312 3.0625zm20.848 23.238c-1.3828 0.007812-2.7109-0.54297-3.6836-1.5234l-13.387-13.445 2.4414-2.4727 17.02 16.828c-0.73438 0.39453-1.5547 0.60938-2.3906 0.61328z"/>
<text x="0.0" y="117.5" font-size="5.0" font-weight="bold" font-family="Arbeit Regular, Helvetica, Arial-Unicode, Arial, Sans-serif" fill="#000000">Created by metami septiana</text><text x="0.0" y="122.5" font-size="5.0" font-weight="bold" font-family="Arbeit Regular, Helvetica, Arial-Unicode, Arial, Sans-serif" fill="#000000">from Noun Project</text></svg>