<svg xmlns="http://www.w3.org/2000/svg" version="1.1" viewBox="-5.0 -10.0 110.0 135.0">
 <path d="m41.016 80.109c-12.688-3.2812-22.297-13.094-25.656-25.266 6.4688 6.4688 19.406 10.781 34.641 10.781 2.6875 0 5.375-0.14062 7.9688-0.42188 0.85938-0.09375 1.4844-0.85938 1.3906-1.7188s-0.875-1.4844-1.7188-1.3906c-2.5 0.26562-5.0781 0.39062-7.6562 0.39062-19.484 0-35.938-7.875-35.938-17.188 0-4.3281 3.6719-8.6406 10.078-11.844 0.76562-0.39062 1.0781-1.3281 0.70312-2.0938-0.39062-0.76562-1.3281-1.0781-2.0938-0.70312-4.6875 2.3438-8.0625 5.2031-9.9844 8.375h-4.9531c-2.5781 0-4.6875 2.1094-4.6875 4.6875v3.125c0 2.5781 2.1094 4.6875 4.6875 4.6875h3.6406c2.4375 15.109 13.594 27.656 28.781 31.578 0.125 0.03125 0.26562 0.046875 0.39062 0.046875 0.70312 0 1.3281-0.46875 1.5156-1.1719 0.21875-0.84375-0.28125-1.6875-1.125-1.9062zm-33.203-31.672c-0.85938 0-1.5625-0.70312-1.5625-1.5625v-3.125c0-0.85938 0.70312-1.5625 1.5625-1.5625h3.5625c-0.29688 1.0156-0.4375 2.0625-0.4375 3.125s0.046875 2.0938 0.125 3.125z"/>
 <path d="m92.188 39.062h-5c-5.0469-8.3125-20.078-14.062-37.188-14.062-7.3906 0-14.594 1.0625-20.797 3.0625-0.82812 0.26562-1.2656 1.1406-1.0156 1.9688 0.26562 0.82812 1.1562 1.2656 1.9688 1 5.9062-1.9062 12.766-2.9062 19.828-2.9062 16.297 0 30.984 5.5625 34.922 13.219 0.67188 1.2812 1.0156 2.625 1.0156 3.9688 0 0.20312-0.015625 0.40625-0.03125 0.625-0.09375 1.1406-0.42188 2.2656-0.98438 3.3594-2.7188 5.2969-10.641 9.75-21.172 11.891-0.84375 0.17188-1.3906 1-1.2188 1.8438 0.15625 0.73438 0.79688 1.25 1.5312 1.25 0.10938 0 0.20312 0 0.3125-0.03125 8.8125-1.7969 16-5.2031 20.281-9.4688-3.3281 12.219-12.953 22.062-25.672 25.344-0.82812 0.21875-1.3438 1.0625-1.125 1.9062 0.1875 0.70312 0.8125 1.1719 1.5156 1.1719 0.125 0 0.26562-0.015625 0.39062-0.046875 15.203-3.9219 26.344-16.469 28.781-31.578h3.6406c2.5781 0 4.6875-2.1094 4.6875-4.6875v-3.125c0-2.5781-2.1094-4.6875-4.6875-4.6875zm1.5625 7.8125c0 0.85938-0.70312 1.5625-1.5625 1.5625h-3.25c0.0625-0.75 0.078125-1.5 0.09375-2.2656 0-0.046875 0-0.09375 0.015625-0.14062 0.015625-0.25 0.015625-0.48438 0.015625-0.71875 0-1.0625-0.17188-2.0938-0.46875-3.125h3.5938c0.85938 0 1.5625 0.70312 1.5625 1.5625z"/>
 <path d="m51.562 73.438h-3.125c-1.7188 0-3.125 1.4062-3.125 3.125v17.188c0 1.7188 1.4062 3.125 3.125 3.125h3.125c1.7188 0 3.125-1.4062 3.125-3.125v-17.188c0-1.7188-1.4062-3.125-3.125-3.125zm-3.125 20.312v-17.188h3.125v17.188h-3.125z"/>
 <path d="m78.578 79.047c-0.32812-0.79688-1.25-1.1719-2.0469-0.84375s-1.1719 1.25-0.84375 2.0469l5.5469 13.438s-0.0625 0.0625-0.15625 0.0625h-3.1875s-0.14062-0.046875-0.15625-0.078125l-4.5469-10.984c-0.32812-0.79688-1.25-1.1719-2.0469-0.84375s-1.1719 1.25-0.84375 2.0469l4.5469 11c0.51562 1.2188 1.7031 2 3.0312 2h3.1875c1.125 0 2.1562-0.54688 2.7656-1.4531 0.59375-0.89062 0.70312-2 0.29688-2.9844l-5.5469-13.391z"/>
 <path d="m28.844 81.844c-0.79688-0.32812-1.7031 0.046875-2.0469 0.84375l-4.5469 10.969s-0.078125 0.09375-0.15625 0.09375h-3.1875c-0.09375 0-0.14062-0.03125-0.17188-0.125l5.5469-13.391c0.32812-0.79688-0.046875-1.7188-0.84375-2.0469s-1.7188 0.046875-2.0469 0.84375l-5.5469 13.391c-0.40625 0.98438-0.29688 2.0938 0.29688 2.9844 0.60938 0.90625 1.6406 1.4531 2.7656 1.4531h3.1875c1.3281 0 2.5156-0.78125 3.0312-2.0156l4.5469-10.984c0.32812-0.79688-0.046875-1.7188-0.84375-2.0469z"/>
 <path d="m51.562 57.812v-25c0-0.85938-0.70312-1.5625-1.5625-1.5625s-1.5625 0.70312-1.5625 1.5625v25c0 0.85938 0.70312 1.5625 1.5625 1.5625s1.5625-0.70312 1.5625-1.5625z"/>
 <path d="m57.812 57.531v-24.438c0-0.85938-0.70312-1.5625-1.5625-1.5625s-1.5625 0.70312-1.5625 1.5625v24.438c0 0.85938 0.70312 1.5625 1.5625 1.5625s1.5625-0.70312 1.5625-1.5625z"/>
 <path d="m64.062 56.656v-22.688c0-0.85938-0.70312-1.5625-1.5625-1.5625s-1.5625 0.70312-1.5625 1.5625v22.688c0 0.85938 0.70312 1.5625 1.5625 1.5625s1.5625-0.70312 1.5625-1.5625z"/>
 <path d="m70.312 55.047v-19.469c0-0.85938-0.70312-1.5625-1.5625-1.5625s-1.5625 0.70312-1.5625 1.5625v19.469c0 0.85938 0.70312 1.5625 1.5625 1.5625s1.5625-0.70312 1.5625-1.5625z"/>
 <path d="m76.562 52.344v-14.062c0-0.85938-0.70312-1.5625-1.5625-1.5625s-1.5625 0.70312-1.5625 1.5625v14.062c0 0.85938 0.70312 1.5625 1.5625 1.5625s1.5625-0.70312 1.5625-1.5625z"/>
 <path d="m45.312 57.531v-24.438c0-0.85938-0.70312-1.5625-1.5625-1.5625s-1.5625 0.70312-1.5625 1.5625v24.438c0 0.85938 0.70312 1.5625 1.5625 1.5625s1.5625-0.70312 1.5625-1.5625z"/>
 <path d="m39.062 56.656v-22.688c0-0.85938-0.70312-1.5625-1.5625-1.5625s-1.5625 0.70312-1.5625 1.5625v22.688c0 0.85938 0.70312 1.5625 1.5625 1.5625s1.5625-0.70312 1.5625-1.5625z"/>
 <path d="m32.812 55.047v-19.469c0-0.85938-0.70312-1.5625-1.5625-1.5625s-1.5625 0.70312-1.5625 1.5625v19.469c0 0.85938 0.70312 1.5625 1.5625 1.5625s1.5625-0.70312 1.5625-1.5625z"/>
 <path d="m23.438 38.281v14.062c0 0.85938 0.70312 1.5625 1.5625 1.5625s1.5625-0.70312 1.5625-1.5625v-14.062c0-0.85938-0.70312-1.5625-1.5625-1.5625s-1.5625 0.70312-1.5625 1.5625z"/>
 <path d="m67.75 19.625c-0.84375 0.70312-2.125 1.7656-2.125 3.8125 0 0.85938 0.70312 1.5625 1.5625 1.5625s1.5625-0.70312 1.5625-1.5625c0-0.53125 0.25-0.78125 1-1.4062 0.84375-0.70312 2.125-1.7656 2.125-3.8125s-1.2812-3.0938-2.125-3.8125c-0.75-0.625-1-0.875-1-1.4062s0.20312-0.73438 1-1.4062c0.84375-0.70312 2.125-1.7656 2.125-3.7969 0-0.85938-0.70312-1.5625-1.5625-1.5625s-1.5625 0.70312-1.5625 1.5625c0 0.5-0.20312 0.73438-1 1.4062-0.84375 0.70312-2.125 1.7656-2.125 3.7969s1.2812 3.0938 2.125 3.8125c0.75 0.625 1 0.875 1 1.4062s-0.25 0.78125-1 1.4062z"/>
 <path d="m49 16.5c-0.84375 0.70312-2.125 1.7656-2.125 3.8125 0 0.85938 0.70312 1.5625 1.5625 1.5625s1.5625-0.70312 1.5625-1.5625c0-0.53125 0.25-0.78125 1-1.4062 0.84375-0.70312 2.125-1.7656 2.125-3.8125s-1.2812-3.0938-2.125-3.8125c-0.75-0.625-1-0.875-1-1.4062s0.20312-0.73438 1-1.4062c0.84375-0.70312 2.125-1.7656 2.125-3.7969 0-0.85938-0.70312-1.5625-1.5625-1.5625s-1.5625 0.70312-1.5625 1.5625c0 0.5-0.20312 0.73438-1 1.4062-0.84375 0.70312-2.125 1.7656-2.125 3.7969s1.2812 3.0938 2.125 3.8125c0.75 0.625 1 0.875 1 1.4062s-0.25 0.78125-1 1.4062z"/>
 <path d="m30.25 19.625c-0.84375 0.70312-2.125 1.7656-2.125 3.8125 0 0.85938 0.70312 1.5625 1.5625 1.5625s1.5625-0.70312 1.5625-1.5625c0-0.53125 0.25-0.78125 1-1.4062 0.84375-0.70312 2.125-1.7656 2.125-3.8125s-1.2812-3.0938-2.125-3.8125c-0.75-0.625-1-0.875-1-1.4062s0.20312-0.73438 1-1.4062c0.84375-0.70312 2.125-1.7656 2.125-3.7969 0-0.85938-0.70312-1.5625-1.5625-1.5625s-1.5625 0.70312-1.5625 1.5625c0 0.5-0.20312 0.73438-1 1.4062-0.84375 0.70312-2.125 1.7656-2.125 3.7969s1.2812 3.0938 2.125 3.8125c0.75 0.625 1 0.875 1 1.4062s-0.25 0.78125-1 1.4062z"/>
<text x="0.0" y="117.5" font-size="5.0" font-weight="bold" font-family="Arbeit Regular, Helvetica, Arial-Unicode, Arial, Sans-serif" fill="#000000">Created by wyasa design</text><text x="0.0" y="122.5" font-size="5.0" font-weight="bold" font-family="Arbeit Regular, Helvetica, Arial-Unicode, Arial, Sans-serif" fill="#000000">from Noun Project</text></svg>