<svg xmlns="http://www.w3.org/2000/svg" viewBox="0 0 64 80" x="0px" y="0px"><g data-name="Cooktop Electric-Kitchen"><path d="M59,2H5A3,3,0,0,0,2,5V59a3,3,0,0,0,3,3H59a3,3,0,0,0,3-3V5A3,3,0,0,0,59,2ZM5,4H59a1,1,0,0,1,1,1V52H4V5A1,1,0,0,1,5,4ZM59,60H5a1,1,0,0,1-1-1V54H60v5A1,1,0,0,1,59,60Z"/><path d="M32,50A22,22,0,1,0,10,28,22.025,22.025,0,0,0,32,50ZM32,8A20,20,0,1,1,12,28,20.023,20.023,0,0,1,32,8Z"/><rect x="31" y="12" width="2" height="2"/><rect x="31" y="18" width="2" height="2"/><rect x="19.686" y="16.686" width="2" height="2" transform="translate(-6.447 19.812) rotate(-45.01)"/><rect x="23.929" y="20.929" width="2" height="2" transform="translate(-8.204 24.056) rotate(-45.01)"/><rect x="15" y="28" width="2" height="2"/><rect x="21" y="28" width="2" height="2"/><rect x="19.686" y="39.314" width="2" height="2" transform="translate(-22.447 26.435) rotate(-45)"/><rect x="23.929" y="35.071" width="2" height="2" transform="translate(-18.205 28.192) rotate(-45)"/><rect x="31" y="44" width="2" height="2"/><rect x="31" y="38" width="2" height="2"/><rect x="42.314" y="39.313" width="2" height="2" transform="translate(-15.819 42.445) rotate(-45.01)"/><rect x="38.071" y="35.071" width="2" height="2" transform="translate(-14.062 38.202) rotate(-45.01)"/><rect x="47" y="28" width="2" height="2"/><rect x="41" y="28" width="2" height="2"/><rect x="42.314" y="16.687" width="2" height="2" transform="translate(0.18 35.808) rotate(-45)"/><rect x="38.071" y="20.929" width="2" height="2" transform="translate(-4.062 34.05) rotate(-45)"/><circle cx="32" cy="57" r="2"/><circle cx="40" cy="57" r="2"/><circle cx="24" cy="57" r="2"/></g><text x="0" y="79" fill="#000000" font-size="5px" font-weight="bold" font-family="'Helvetica Neue', Helvetica, Arial-Unicode, Arial, Sans-serif">Created by ic2icon</text><text x="0" y="84" fill="#000000" font-size="5px" font-weight="bold" font-family="'Helvetica Neue', Helvetica, Arial-Unicode, Arial, Sans-serif">from the Noun Project</text></svg>