<svg xmlns="http://www.w3.org/2000/svg" xmlns:xlink="http://www.w3.org/1999/xlink" version="1.1" x="0px" y="0px" viewBox="0 0 50 62.5" style="enable-background:new 0 0 50 50;" xml:space="preserve"><path d="M12.8334961,2.25v45.5h23.8330078V2.25H12.8334961z M35.6665039,29.9580078H25.25V3.25h10.4165039V29.9580078z   M35.6665039,30.9580078v14.3125H13.8334961v-14.3125H35.6665039z M24.25,3.25v26.7080078H13.8334961V3.25H24.25z M13.8334961,46.75  v-0.4794922h21.8330078V46.75H13.8334961z M15.53125,19.3867188h4.3540039c0.4306641,0,0.78125-0.3505859,0.78125-0.78125  v-6.0947266c0-0.4306641-0.3505859-0.78125-0.78125-0.78125H15.53125c-0.4306641,0-0.78125,0.3505859-0.78125,0.78125v6.0947266  C14.75,19.0361328,15.1005859,19.3867188,15.53125,19.3867188z M19.8852539,18.8867188H15.53125  c-0.1552734,0-0.28125-0.1259766-0.28125-0.28125v-4.5224609h4.9165039v4.5224609  C20.1665039,18.7607422,20.0405273,18.8867188,19.8852539,18.8867188z M15.53125,12.2294922h4.3540039  c0.1552734,0,0.28125,0.1259766,0.28125,0.28125v1.0722656H15.25v-1.0722656  C15.25,12.3554688,15.3759766,12.2294922,15.53125,12.2294922z M15.9790039,33.9169922H33.6875  c0.4018555,0,0.7290039-0.3271484,0.7290039-0.7294922s-0.3271484-0.7294922-0.7290039-0.7294922H15.9790039  c-0.4018555,0-0.7290039,0.3271484-0.7290039,0.7294922S15.5771484,33.9169922,15.9790039,33.9169922z M15.9790039,32.9580078  H33.6875c0.1264648,0,0.2290039,0.1025391,0.2290039,0.2294922s-0.1025391,0.2294922-0.2290039,0.2294922H15.9790039  c-0.1264648,0-0.2290039-0.1025391-0.2290039-0.2294922S15.8525391,32.9580078,15.9790039,32.9580078z M26.6303711,26.1875  c0.4018555,0,0.7290039-0.3271484,0.7290039-0.7294922V7.75c0-0.4023438-0.3271484-0.7294922-0.7290039-0.7294922  c-0.4023438,0-0.7294922,0.3271484-0.7294922,0.7294922v17.7080078C25.9008789,25.8603516,26.2280273,26.1875,26.6303711,26.1875z   M26.4008789,7.75c0-0.1269531,0.1030273-0.2294922,0.2294922-0.2294922S26.859375,7.6230469,26.859375,7.75v17.7080078  c0,0.1269531-0.1025391,0.2294922-0.2290039,0.2294922s-0.2294922-0.1025391-0.2294922-0.2294922V7.75z M22.8696289,26.1875  c0.4023438,0,0.7294922-0.3271484,0.7294922-0.7294922V7.75c0-0.4023438-0.3271484-0.7294922-0.7294922-0.7294922  c-0.4018555,0-0.7290039,0.3271484-0.7290039,0.7294922v17.7080078C22.140625,25.8603516,22.4677734,26.1875,22.8696289,26.1875z   M22.640625,7.75c0-0.1269531,0.1025391-0.2294922,0.2290039-0.2294922S23.0991211,7.6230469,23.0991211,7.75v17.7080078  c0,0.1269531-0.1030273,0.2294922-0.2294922,0.2294922s-0.2290039-0.1025391-0.2290039-0.2294922V7.75z M18.9428711,12.4267578  h-2.46875v0.875h2.46875V12.4267578z M18.6928711,13.0517578h-1.96875v-0.375h1.96875V13.0517578z"/><text x="0" y="65" fill="#000000" font-size="5px" font-weight="bold" font-family="'Helvetica Neue', Helvetica, Arial-Unicode, Arial, Sans-serif">Created by ATOM</text><text x="0" y="70" fill="#000000" font-size="5px" font-weight="bold" font-family="'Helvetica Neue', Helvetica, Arial-Unicode, Arial, Sans-serif">from the Noun Project</text></svg>