<svg xmlns="http://www.w3.org/2000/svg" version="1.1" viewBox="-5.0 -10.0 110.0 135.0">
 <path d="m13.281 9.375v81.25c0 2.5898 2.1016 4.6875 4.6875 4.6875h64.062c2.5898 0 4.6875-2.0977 4.6875-4.6875v-81.25c0-2.5859-2.0977-4.6875-4.6875-4.6875h-64.062c-2.5859 0-4.6875 2.1016-4.6875 4.6875zm27.977 28.148h-24.852v53.102c0 0.86328 0.69922 1.5625 1.5625 1.5625h8v-9.6953c0-0.86328 0.69531-1.5625 1.5625-1.5625h9.5273c-0.125-0.35156-0.20703-0.71875-0.24609-1.1055-0.69141-7.0039-2.4297-24.652-2.4297-24.652-0.046874-0.44141 0.097657-0.87891 0.39453-1.2031 0.29688-0.32812 0.71875-0.51562 1.1602-0.51562h29.328c0.44531 0 0.86719 0.1875 1.1641 0.51953 0.29297 0.32812 0.4375 0.76562 0.39062 1.207 0 0-1.8281 17.672-2.5508 24.668-0.039062 0.37891-0.12109 0.73828-0.24609 1.082h8.4492c0.86328 0 1.5625 0.69922 1.5625 1.5625v9.6953h7.9961c0.86328 0 1.5625-0.69922 1.5625-1.5625v-53.102h-24.852v9.6953c0 0.86328-0.69922 1.5625-1.5625 1.5625h-14.359c-0.85937 0-1.5625-0.69922-1.5625-1.5625zm-12.164 54.664h41.816v-8.1328h-41.816zm18.113-35.609h-9.5469l2.2656 22.941c0.078125 0.80078 0.75 1.4102 1.5508 1.4102h0.1875v-6.9375c0-0.86328 0.69922-1.5625 1.5625-1.5625h8.0117l-1.0977-0.63281c-0.74609-0.43359-1.0039-1.3867-0.57031-2.1328l0.94141-1.6367-5.25 3.0312c-0.74609 0.43359-1.7031 0.17578-2.1328-0.57031l-4.25-7.3633c-0.43359-0.74609-0.17578-1.7031 0.57031-2.1328l7.3633-4.25c0.12891-0.074219 0.25781-0.125 0.39453-0.16406zm2.957 24.352h-5.375v-5.375h5.375zm11.84-9.5547-2.3672 4.1016c-0.42969 0.74609-1.3867 1-2.1328 0.57031l-4.2695-2.4648c0.035156 0.12891 0.054687 0.26953 0.054687 0.41016v6.9375h6.3164c0.80078 0 1.4727-0.60938 1.5547-1.4023zm-1.6055-3.4727-2.6875 4.6562-4.6562-2.6875 2.6875-4.6562zm-13.375-7.6758 2.6875 4.6562-4.6562 2.6875-2.6875-4.6562zm0.95312-3.6484c0.39453 0.10156 0.75 0.35156 0.96875 0.73438l3.875 6.7109 1-1.7227c0.42969-0.74609 1.3867-1.0039 2.1328-0.57422l6.6484 3.8398 0.93359-8.9883zm7.6406-19.055h-11.234v8.1328h11.234zm12.164-29.711v13.508c0 2.5859-2.1016 4.6875-4.6875 4.6875h-26.184c-2.5898 0-4.6875-2.1016-4.6875-4.6875v-13.508h-14.254c-0.86328 0-1.5625 0.69922-1.5625 1.5625v25.023h67.188v-25.023c0-0.86328-0.69922-1.5625-1.5625-1.5625zm-3.125 0h-29.309v13.508c0 0.85938 0.69531 1.5625 1.5625 1.5625h26.184c0.86328 0 1.5625-0.70312 1.5625-1.5625z" fill-rule="evenodd"/>
<text x="0.0" y="117.5" font-size="5.0" font-weight="bold" font-family="Arbeit Regular, Helvetica, Arial-Unicode, Arial, Sans-serif" fill="#000000">Created by rendicon</text><text x="0.0" y="122.5" font-size="5.0" font-weight="bold" font-family="Arbeit Regular, Helvetica, Arial-Unicode, Arial, Sans-serif" fill="#000000">from Noun Project</text></svg>