<svg xmlns="http://www.w3.org/2000/svg" version="1.1" viewBox="-5.0 -10.0 110.0 135.0">
 <path d="m42.758 5.1719c-0.72266 0-1.3359 0.52344-1.4492 1.2383l-1.4805 9.3164c-2.9492 0.82031-5.7812 1.9961-8.4492 3.5l-7.6328-5.5391v-0.003906c-0.58594-0.42188-1.3945-0.35938-1.9062 0.15234l-10.238 10.242c-0.51172 0.51172-0.57422 1.3164-0.14844 1.9023l5.5391 7.6367c-1.5039 2.668-2.6758 5.5039-3.4961 8.4531l-9.3125 1.4844-0.003906-0.003907c-0.71094 0.11328-1.2383 0.73047-1.2383 1.4531v14.484c0 0.72656 0.52344 1.3398 1.2383 1.4531l9.2891 1.4805c0.027344 0.10547 0.054688 0.20703 0.085938 0.3125 0 0 0 0.003906 0.003906 0.003906 0.81641 2.8398 1.9805 5.5664 3.4297 8.1367l-5.5352 7.6328c-0.42578 0.58594-0.36328 1.3945 0.14844 1.9062l10.238 10.242c0.51172 0.50781 1.3203 0.57422 1.9062 0.14844l7.625-5.5352c0.36328 0.20703 0.72656 0.42188 1.0977 0.61328 0.34375 0.18359 0.75 0.21875 1.1211 0.10156s0.68359-0.37891 0.86328-0.72266c0.17969-0.34766 0.21484-0.75 0.097656-1.1211-0.11719-0.375-0.375-0.68359-0.72266-0.86328-0.61328-0.32031-1.2148-0.65625-1.8047-1.0117-0.50781-0.30078-1.1445-0.27344-1.6211 0.074219l-7.3711 5.3477-8.4648-8.4688 5.3477-7.375 0.003907 0.003906c0.34375-0.47656 0.37109-1.1133 0.070312-1.6211-1.5586-2.6016-2.7695-5.3945-3.6055-8.3086v0.003906c0-0.003906-0.003906-0.003906-0.003906-0.003906-0.10938-0.38281-0.21484-0.76953-0.3125-1.1562h0.003906c-0.14453-0.57031-0.61328-1-1.1953-1.0938l-0.57422-0.089844-8.418-1.3398v-11.98l8.9922-1.4336c0.58203-0.089844 1.0508-0.52344 1.1953-1.0938 0.83594-3.332 2.1562-6.5234 3.918-9.4688 0.30078-0.50391 0.27344-1.1406-0.070312-1.6172l-5.3477-7.375 8.4648-8.4688 7.3711 5.3477-0.003906 0.003906c0.47656 0.34375 1.1133 0.375 1.6211 0.070312 2.9453-1.7656 6.1367-3.0859 9.4648-3.9219v0.003907c0.57031-0.14453 1-0.61719 1.0938-1.1953l1.4336-8.9961h11.973l1.4297 8.9766h-0.003907c0.09375 0.58203 0.52344 1.0508 1.0938 1.1953 3.3359 0.83594 6.5312 2.1602 9.4844 3.9258 0.50391 0.30469 1.1406 0.27734 1.6172-0.070313l7.3516-5.3398 8.4648 8.4688-5.3359 7.3594c-0.34375 0.47656-0.375 1.1133-0.070313 1.6211 1.7695 2.9531 3.0938 6.1484 3.9297 9.4844 0.14062 0.57031 0.61328 1.0039 1.1953 1.0938l8.9727 1.4297v11.977l-8.418 1.3398-0.57812 0.089843v0.003907c-0.58203 0.09375-1.0508 0.52344-1.1953 1.0938-0.097656 0.39062-0.20312 0.77734-0.3125 1.1641-0.83594 2.9102-2.0508 5.7031-3.6055 8.3008-0.30078 0.50781-0.27344 1.1445 0.070313 1.6211l5.3477 7.375-8.4648 8.4688-7.3711-5.3477 0.003906-0.003906c-0.47656-0.34766-1.1133-0.375-1.6211-0.074219-0.58984 0.35156-1.1914 0.69141-1.8008 1.0078-0.34375 0.17969-0.60547 0.49219-0.72266 0.86328-0.11719 0.37109-0.082031 0.77734 0.10156 1.1211 0.17969 0.34766 0.48828 0.60547 0.85938 0.72266 0.375 0.11719 0.77734 0.082031 1.125-0.097657 0.37109-0.19141 0.73047-0.40625 1.0938-0.61328l7.625 5.5352h-0.003906c0.58594 0.42578 1.3945 0.35937 1.9062-0.14844l10.238-10.242c0.51172-0.51172 0.57422-1.3203 0.14844-1.9062l-5.5352-7.6328c1.4492-2.5703 2.6094-5.293 3.4258-8.1289l0.003906 0.003906c0-0.003906 0-0.007812 0.003906-0.007812 0.027344-0.10547 0.058594-0.21094 0.085938-0.32031l9.293-1.4805c0.71484-0.11328 1.2383-0.72656 1.2383-1.4531v-14.484c0-0.72266-0.52344-1.3398-1.2383-1.4531l-9.293-1.4805c-0.82422-2.957-2-5.7969-3.5078-8.4688l5.5273-7.6211h-0.003906c0.42578-0.58594 0.36328-1.3906-0.14844-1.9023l-10.238-10.242c-0.51172-0.51172-1.3203-0.57422-1.9062-0.15234l-7.6133 5.5273c-2.6719-1.5078-5.5117-2.6836-8.4648-3.5039l-1.4805-9.2969c-0.11328-0.71484-0.72656-1.2383-1.4531-1.2383zm-1.1367 24.465c-0.14453 0.011719-0.28906 0.042969-0.42578 0.09375-9.4531 3.6445-15.695 12.75-15.695 22.887 0 9.3594 5.2578 17.5 12.98 21.629v19.113c0 0.39062 0.15234 0.76172 0.42969 1.0391 0.27344 0.27734 0.64844 0.42969 1.0391 0.42969s0.76562-0.15234 1.0391-0.42969c0.27734-0.27734 0.43359-0.64844 0.43359-1.0391v-19.992c0-0.5625-0.32422-1.0781-0.82812-1.3242-7.1914-3.4961-12.152-10.867-12.152-19.426v0.003906-0.003906c0-8.1953 4.625-15.59 11.812-19.238v12.715c0 3.3086 2.7148 6.0234 6.0234 6.0234h7.4531c3.3086 0 6.0234-2.7148 6.0234-6.0234v-12.711c7.1875 3.6484 11.812 11.043 11.812 19.234 0 8.5547-4.9609 15.926-12.152 19.426h-0.007812c-0.50391 0.24609-0.82422 0.76172-0.82422 1.3242v19.992c0 0.39062 0.15234 0.76172 0.42969 1.0391 0.27344 0.27734 0.64844 0.42969 1.0391 0.42969s0.76562-0.15234 1.0391-0.42969c0.27734-0.27734 0.43359-0.64844 0.43359-1.0391v-19.109c7.7227-4.1289 12.98-12.27 12.98-21.629h-0.003906v-0.003906c0-10.137-6.2422-19.242-15.695-22.883-0.44922-0.17578-0.96094-0.11328-1.3594 0.16016-0.39844 0.27344-0.64062 0.72656-0.64062 1.2109v14.988c0 1.7188-1.3633 3.082-3.082 3.082h-7.4531c-1.7188 0-3.082-1.3633-3.082-3.082v-14.988h0.007812c0-0.41016-0.17187-0.80078-0.46875-1.0781-0.29687-0.27734-0.69922-0.41797-1.1055-0.39062z"/>
<text x="0.0" y="117.5" font-size="5.0" font-weight="bold" font-family="Arbeit Regular, Helvetica, Arial-Unicode, Arial, Sans-serif" fill="#000000">Created by Larea</text><text x="0.0" y="122.5" font-size="5.0" font-weight="bold" font-family="Arbeit Regular, Helvetica, Arial-Unicode, Arial, Sans-serif" fill="#000000">from Noun Project</text></svg>