<svg xmlns="http://www.w3.org/2000/svg" xmlns:xlink="http://www.w3.org/1999/xlink" version="1.1" x="0px" y="0px" viewBox="0 0 64 80" style="enable-background:new 0 0 64 64;" xml:space="preserve"><g><path d="M47.1,24.4c1.7,0,3.1-1.4,3.1-3.1s-1.4-3.1-3.1-3.1S44,19.5,44,21.3S45.4,24.4,47.1,24.4z M47.1,20.1   c0.6,0,1.1,0.5,1.1,1.1s-0.5,1.1-1.1,1.1S46,21.9,46,21.3S46.5,20.1,47.1,20.1z"/><path d="M54.8,18.1c-1.7,0-3.1,1.4-3.1,3.1s1.4,3.1,3.1,3.1s3.1-1.4,3.1-3.1S56.5,18.1,54.8,18.1z M54.8,22.4   c-0.6,0-1.1-0.5-1.1-1.1s0.5-1.1,1.1-1.1s1.1,0.5,1.1,1.1S55.4,22.4,54.8,22.4z"/><path d="M57,12.8H7c-2.2,0-4,1.8-4,4v30.5c0,2.2,1.8,4,4,4h50c2.2,0,4-1.8,4-4V16.8C61,14.5,59.2,12.8,57,12.8z M41,49.3H7   c-1.1,0-2-0.9-2-2V16.8c0-1.1,0.9-2,2-2h34V49.3z M59,47.3c0,1.1-0.9,2-2,2H43V14.8h14c1.1,0,2,0.9,2,2V47.3z"/><path d="M11.5,45.8H34c2.1,0,3.8-1.7,3.8-3.8V21.9c0-2.1-1.7-3.8-3.8-3.8H11.5c-2.1,0-3.8,1.7-3.8,3.8V42   C7.8,44.1,9.4,45.8,11.5,45.8z M9.8,21.9c0-1,0.8-1.8,1.8-1.8H34c1,0,1.8,0.8,1.8,1.8V42c0,1-0.8,1.8-1.8,1.8H11.5   c-1,0-1.8-0.8-1.8-1.8V21.9z"/><path d="M56.9,28.4H45c-0.6,0-1,0.4-1,1s0.4,1,1,1h11.9c0.6,0,1-0.4,1-1S57.4,28.4,56.9,28.4z"/><path d="M56.9,33.3H45c-0.6,0-1,0.4-1,1s0.4,1,1,1h11.9c0.6,0,1-0.4,1-1S57.4,33.3,56.9,33.3z"/><path d="M56.9,38.2H45c-0.6,0-1,0.4-1,1s0.4,1,1,1h11.9c0.6,0,1-0.4,1-1S57.4,38.2,56.9,38.2z"/><path d="M56.9,43.1H45c-0.6,0-1,0.4-1,1s0.4,1,1,1h11.9c0.6,0,1-0.4,1-1S57.4,43.1,56.9,43.1z"/><path d="M12.9,38.1c0.1,0.1,0.3,0.1,0.5,0.1c0.4,0,0.7-0.2,0.9-0.5l5.7-11.2c0.3-0.5,0.1-1.1-0.4-1.3c-0.5-0.3-1.1-0.1-1.3,0.4   l-5.7,11.2C12.2,37.2,12.4,37.8,12.9,38.1z"/><path d="M22.3,38.1c0.1,0.1,0.3,0.1,0.5,0.1c0.4,0,0.7-0.2,0.9-0.5l5.7-11.2c0.3-0.5,0.1-1.1-0.4-1.3c-0.5-0.3-1.1-0.1-1.3,0.4   l-5.7,11.2C21.6,37.2,21.8,37.8,22.3,38.1z"/></g><text x="0" y="79" fill="#000000" font-size="5px" font-weight="bold" font-family="'Helvetica Neue', Helvetica, Arial-Unicode, Arial, Sans-serif">Created by Cahya Kurniawan</text><text x="0" y="84" fill="#000000" font-size="5px" font-weight="bold" font-family="'Helvetica Neue', Helvetica, Arial-Unicode, Arial, Sans-serif">from the Noun Project</text></svg>