<svg xmlns="http://www.w3.org/2000/svg" xmlns:xlink="http://www.w3.org/1999/xlink" version="1.1" x="0px" y="0px" viewBox="0 0 64 80" style="enable-background:new 0 0 64 64;" xml:space="preserve"><g><path d="M62,41h-5v-4c0-0.266-0.105-0.52-0.293-0.707l-15-15C41.52,21.105,41.266,21,41,21h-2V2c0-0.553-0.447-1-1-1H26   c-0.553,0-1,0.447-1,1v19h-3c-0.266,0-0.52,0.105-0.707,0.293l-15,15C6.105,36.48,6,36.734,6,37v4H2c-0.553,0-1,0.447-1,1v6   c0,0.553,0.447,1,1,1h60c0.553,0,1-0.447,1-1v-6C63,41.447,62.553,41,62,41z M27,3h10v24H27V3z M8,37.414L22.414,23H25v5   c0,0.553,0.447,1,1,1h12c0.553,0,1-0.447,1-1v-5h1.586L55,37.414V41H8V37.414z M61,47H3v-4h58V47z"/><path d="M23.414,56C23.147,55.732,23,55.378,23,55s0.147-0.732,0.414-1l1.293-1.293l-1.414-1.414L22,52.586   c-0.645,0.645-1,1.502-1,2.414s0.355,1.77,1,2.414L22.586,58C22.853,58.268,23,58.622,23,59s-0.147,0.732-0.414,1l-1.293,1.293   l1.414,1.414L24,61.414c0.645-0.645,1-1.502,1-2.414s-0.355-1.77-1-2.414L23.414,56z"/><path d="M29.414,56C29.147,55.732,29,55.378,29,55s0.147-0.732,0.414-1l1.293-1.293l-1.414-1.414L28,52.586   c-0.645,0.645-1,1.502-1,2.414s0.355,1.77,1,2.414L28.586,58C28.853,58.268,29,58.622,29,59s-0.147,0.732-0.414,1l-1.293,1.293   l1.414,1.414L30,61.414c0.645-0.645,1-1.502,1-2.414s-0.355-1.77-1-2.414L29.414,56z"/><path d="M35.414,56C35.147,55.732,35,55.378,35,55s0.147-0.732,0.414-1l1.293-1.293l-1.414-1.414L34,52.586   c-0.645,0.645-1,1.502-1,2.414s0.355,1.77,1,2.414L34.586,58C34.853,58.268,35,58.622,35,59s-0.147,0.732-0.414,1l-1.293,1.293   l1.414,1.414L36,61.414c0.645-0.645,1-1.502,1-2.414s-0.355-1.77-1-2.414L35.414,56z"/><path d="M41.414,56C41.147,55.732,41,55.378,41,55s0.147-0.732,0.414-1l1.293-1.293l-1.414-1.414L40,52.586   c-0.645,0.645-1,1.502-1,2.414s0.355,1.77,1,2.414L40.586,58C40.853,58.268,41,58.622,41,59s-0.147,0.732-0.414,1l-1.293,1.293   l1.414,1.414L42,61.414c0.645-0.645,1-1.502,1-2.414s-0.355-1.77-1-2.414L41.414,56z"/><rect x="49" y="37" width="2" height="2"/><rect x="45" y="37" width="2" height="2"/><rect x="41" y="37" width="2" height="2"/></g><text x="0" y="79" fill="#000000" font-size="5px" font-weight="bold" font-family="'Helvetica Neue', Helvetica, Arial-Unicode, Arial, Sans-serif">Created by Template</text><text x="0" y="84" fill="#000000" font-size="5px" font-weight="bold" font-family="'Helvetica Neue', Helvetica, Arial-Unicode, Arial, Sans-serif">from the Noun Project</text></svg>