<svg xmlns="http://www.w3.org/2000/svg" xmlns:xlink="http://www.w3.org/1999/xlink" version="1.1" x="0px" y="0px" viewBox="0 0 96 120" style="enable-background:new 0 0 96 96;" xml:space="preserve"><path d="M55.197,39.069c0.418,0,0.803-0.223,1.012-0.584c0.209-0.362,0.209-0.807,0-1.169l-3.079-5.332  c-0.209-0.362-0.595-0.584-1.012-0.584s-0.803,0.223-1.012,0.584l-3.079,5.332c-0.209,0.362-0.209,0.807,0,1.169  c0.209,0.362,0.595,0.584,1.012,0.584h1.91v12.565c-1.241,0.473-2.125,1.675-2.125,3.079c0,1.816,1.477,3.294,3.294,3.294  c1.405,0,2.607-0.884,3.08-2.125h8.443v1.91c0,0.418,0.223,0.803,0.584,1.012c0.181,0.104,0.383,0.157,0.584,0.157  c0.202,0,0.404-0.052,0.584-0.157l5.332-3.079c0.362-0.209,0.584-0.595,0.584-1.012c0-0.418-0.223-0.803-0.584-1.012l-5.332-3.079  c-0.362-0.209-0.807-0.209-1.169,0c-0.362,0.209-0.584,0.595-0.584,1.012v1.91h-8.443c-0.334-0.878-1.033-1.577-1.911-1.911V39.069  H55.197z M65.978,54.713v-1.054l1.826,1.054l-1.826,1.054V54.713z M52.118,55.669c-0.527,0-0.956-0.429-0.956-0.956  c0-0.527,0.429-0.956,0.956-0.956s0.956,0.429,0.956,0.956C53.074,55.24,52.645,55.669,52.118,55.669z M51.064,36.731l1.054-1.826  l1.054,1.826H51.064z M88.282,67.315c1.409-4.042,2.123-8.278,2.123-12.602c0-8.795-2.983-16.905-7.987-23.376l2.743-2.743  l1.146,1.146c0.219,0.219,0.517,0.342,0.826,0.342c0.31,0,0.607-0.123,0.826-0.342l4.363-4.364c0.456-0.456,0.456-1.196,0-1.653  l-9.216-9.216c-0.457-0.457-1.196-0.457-1.653,0l-4.363,4.363c-0.219,0.219-0.342,0.516-0.342,0.826c0,0.31,0.123,0.607,0.342,0.826  l1.146,1.146l-2.743,2.743c-4.938-3.818-10.83-6.458-17.252-7.495v-4.039h4.109c0.645,0,1.169-0.523,1.169-1.169v-7.54  C63.52,3.523,62.997,3,62.351,3H41.884c-0.645,0-1.169,0.523-1.169,1.169v7.54c0,0.645,0.523,1.169,1.169,1.169h4.109v4.039  C27.783,19.857,13.83,35.685,13.83,54.713c0,1.226,0.059,2.462,0.174,3.675c0.061,0.643,0.632,1.115,1.274,1.053  c0.643-0.061,1.114-0.632,1.053-1.274c-0.109-1.14-0.164-2.302-0.164-3.453c0-19.823,16.127-35.95,35.95-35.95  c8.428,0,16.188,2.917,22.324,7.792c0.056,0.12,0.13,0.234,0.229,0.333c0.158,0.158,0.35,0.257,0.552,0.306  c1.595,1.341,3.072,2.818,4.414,4.414c0.049,0.202,0.148,0.394,0.306,0.552c0.099,0.099,0.213,0.173,0.333,0.229  c4.875,6.137,7.792,13.896,7.792,22.324c0,3.791-0.584,7.508-1.738,11.073c-1.106-0.725-2.314-1.306-3.6-1.712  c0.924-3.023,1.392-6.165,1.392-9.361c0-17.647-14.357-32.004-32.004-32.004S20.114,37.065,20.114,54.713  c0,1.236,0.071,2.48,0.211,3.698c0.074,0.641,0.654,1.101,1.295,1.027c0.641-0.074,1.101-0.654,1.027-1.295  c-0.086-0.746-0.141-1.503-0.171-2.262h3.924c0.645,0,1.169-0.523,1.169-1.169c0-0.645-0.523-1.169-1.169-1.169h-3.924  c0.601-15.43,13.042-27.871,28.473-28.473v3.924c0,0.645,0.523,1.169,1.169,1.169s1.169-0.523,1.169-1.169v-3.924  c15.43,0.601,27.872,13.042,28.473,28.473h-3.924c-0.645,0-1.169,0.523-1.169,1.169c0,0.645,0.523,1.169,1.169,1.169h3.926  c-0.101,2.617-0.543,5.189-1.317,7.671c-0.686-0.099-1.387-0.153-2.101-0.153c-8.055,0-14.609,6.554-14.609,14.609  c0,1.311,0.176,2.581,0.502,3.79c-3.462,1.554-7.136,2.41-10.949,2.556V80.43c0-0.645-0.523-1.169-1.169-1.169  s-1.169,0.523-1.169,1.169v3.924c-8.477-0.33-16.361-4.235-21.776-10.835c-0.41-0.499-1.146-0.571-1.645-0.162  c-0.499,0.409-0.572,1.146-0.162,1.645c6.11,7.445,15.131,11.715,24.752,11.715c4.504,0,8.84-0.914,12.909-2.713  c0.553,1.223,1.267,2.357,2.119,3.374c-4.715,2.178-9.762,3.285-15.027,3.285c-7.992,0-15.557-2.567-21.879-7.422  c-0.512-0.394-1.246-0.297-1.639,0.215s-0.297,1.246,0.215,1.639C35.549,90.266,43.606,93,52.118,93  c5.894,0,11.532-1.302,16.775-3.865c2.55,2.169,5.849,3.482,9.451,3.482c8.055,0,14.609-6.554,14.609-14.609  C92.952,73.789,91.152,69.984,88.282,67.315z M82.281,16.986l7.563,7.563l-2.71,2.711l-7.564-7.564L82.281,16.986z M43.053,5.338  h18.129v5.203H43.053V5.338z M48.332,16.612v-3.734h7.573v3.734c-1.246-0.123-2.509-0.187-3.786-0.187  C50.84,16.425,49.577,16.489,48.332,16.612z M77.308,25.904l2.582-2.582l3.618,3.618l-2.582,2.582  C79.802,28.238,78.593,27.029,77.308,25.904z M78.343,90.279c-6.766,0-12.271-5.505-12.271-12.271  c0-6.766,5.505-12.271,12.271-12.271s12.271,5.505,12.271,12.271C90.614,84.775,85.109,90.279,78.343,90.279z M86.049,73.476  l-8.127,10.495c-0.193,0.249-0.478,0.41-0.791,0.446c-0.044,0.005-0.089,0.008-0.133,0.008c-0.268,0-0.529-0.092-0.739-0.263  l-5.438-4.434c-0.5-0.408-0.575-1.144-0.167-1.644c0.408-0.501,1.144-0.575,1.645-0.167l4.509,3.676l7.393-9.547  c0.395-0.51,1.13-0.604,1.64-0.209C86.351,72.232,86.445,72.966,86.049,73.476z M3.048,62.984c0-0.645,0.523-1.169,1.169-1.169  h28.131c0.645,0,1.169,0.523,1.169,1.169c0,0.645-0.523,1.169-1.169,1.169H4.217C3.571,64.152,3.048,63.629,3.048,62.984z   M14.199,68.876h21.017c0.645,0,1.169,0.523,1.169,1.169c0,0.645-0.523,1.169-1.169,1.169H14.199c-0.645,0-1.169-0.523-1.169-1.169  C13.03,69.399,13.553,68.876,14.199,68.876z M3.048,77.106c0-0.645,0.523-1.169,1.169-1.169h21.017c0.645,0,1.169,0.523,1.169,1.169  s-0.523,1.169-1.169,1.169H4.217C3.571,78.275,3.048,77.752,3.048,77.106z M20.022,85.336H4.217c-0.645,0-1.169-0.523-1.169-1.169  s0.523-1.169,1.169-1.169h15.805c0.645,0,1.169,0.523,1.169,1.169S20.667,85.336,20.022,85.336z M31.318,91.709  c0,0.645-0.523,1.169-1.169,1.169H14.344c-0.645,0-1.169-0.523-1.169-1.169c0-0.645,0.523-1.169,1.169-1.169h15.805  C30.795,90.54,31.318,91.064,31.318,91.709z"/><text x="0" y="111" fill="#000000" font-size="5px" font-weight="bold" font-family="'Helvetica Neue', Helvetica, Arial-Unicode, Arial, Sans-serif">Created by miftahul huda</text><text x="0" y="116" fill="#000000" font-size="5px" font-weight="bold" font-family="'Helvetica Neue', Helvetica, Arial-Unicode, Arial, Sans-serif">from the Noun Project</text></svg>