<svg xmlns="http://www.w3.org/2000/svg" version="1.1" viewBox="-5.0 -10.0 110.0 135.0">
 <path d="m23.438 42.188h-6.25c-1.7227 0-3.125 1.4023-3.125 3.125v6.25c0 1.7227 1.4023 3.125 3.125 3.125h6.25c1.7227 0 3.125-1.4023 3.125-3.125v-6.25c0-1.7227-1.4023-3.125-3.125-3.125zm-6.25 9.375v-6.25h6.25v6.25z"/>
 <path d="m42.188 42.188h-6.25c-1.7227 0-3.125 1.4023-3.125 3.125v6.25c0 1.7227 1.4023 3.125 3.125 3.125h6.25c1.7227 0 3.125-1.4023 3.125-3.125v-6.25c0-1.7227-1.4023-3.125-3.125-3.125zm-6.25 9.375v-6.25h6.25v6.25z"/>
 <path d="m54.688 54.688h6.25c1.7227 0 3.125-1.4023 3.125-3.125v-6.25c0-1.7227-1.4023-3.125-3.125-3.125h-6.25c-1.7227 0-3.125 1.4023-3.125 3.125v6.25c0 1.7227 1.4023 3.125 3.125 3.125zm0-9.375h6.25v6.25h-6.25z"/>
 <path d="m73.438 54.688h6.25c1.7227 0 3.125-1.4023 3.125-3.125v-6.25c0-1.7227-1.4023-3.125-3.125-3.125h-6.25c-1.7227 0-3.125 1.4023-3.125 3.125v6.25c0 1.7227 1.4023 3.125 3.125 3.125zm0-9.375h6.25v6.25h-6.25z"/>
 <path d="m23.438 60.938h-6.25c-1.7227 0-3.125 1.4023-3.125 3.125v6.25c0 1.7227 1.4023 3.125 3.125 3.125h6.25c1.7227 0 3.125-1.4023 3.125-3.125v-6.25c0-1.7227-1.4023-3.125-3.125-3.125zm-6.25 9.375v-6.25h6.25v6.25z"/>
 <path d="m42.188 60.938h-6.25c-1.7227 0-3.125 1.4023-3.125 3.125v6.25c0 1.7227 1.4023 3.125 3.125 3.125h6.25c1.7227 0 3.125-1.4023 3.125-3.125v-6.25c0-1.7227-1.4023-3.125-3.125-3.125zm-6.25 9.375v-6.25h6.25v6.25z"/>
 <path d="m92.188 67.781v-49.031c0-3.4453-2.8047-6.25-6.25-6.25h-6.25v-6.25c0-1.7227-1.4023-3.125-3.125-3.125h-4.6875c-1.7227 0-3.125 1.4023-3.125 3.125v6.25h-40.625v-6.25c0-1.7227-1.4023-3.125-3.125-3.125h-4.6875c-1.7227 0-3.125 1.4023-3.125 3.125v6.25h-6.25c-3.4453 0-6.25 2.8047-6.25 6.25v62.5c0 3.4453 2.8047 6.25 6.25 6.25h49.414c3.25 5.5938 9.2891 9.375 16.211 9.375 10.34 0 18.75-8.4102 18.75-18.75 0-3.8203-1.1562-7.375-3.125-10.344zm-20.312-61.531h4.6875v7.8047 0.007812 0.007812 7.8047h-4.6875zm-51.562 0h4.6875v7.8047 0.007812 0.007812 7.8047h-4.6875zm-12.5 12.5c0-1.7227 1.4023-3.125 3.125-3.125h6.25v6.25c0 1.7227 1.4023 3.125 3.125 3.125h4.6875c1.7227 0 3.125-1.4023 3.125-3.125v-6.25h40.625v6.25c0 1.7227 1.4023 3.125 3.125 3.125h4.6875c1.7227 0 3.125-1.4023 3.125-3.125v-6.25h6.25c1.7227 0 3.125 1.4023 3.125 3.125v9.375h-81.25zm3.125 65.625c-1.7227 0-3.125-1.4023-3.125-3.125v-50h81.25v32.938c-3.3203-2.9805-7.6953-4.8125-12.5-4.8125s-9.1797 1.832-12.5 4.8125v-0.125c0-1.7227-1.4023-3.125-3.125-3.125h-6.25c-1.7227 0-3.125 1.4023-3.125 3.125v6.25c0 1.7227 1.4023 3.125 3.125 3.125h3.7422c-0.39063 1.5-0.61719 3.0664-0.61719 4.6875 0 2.1953 0.39844 4.293 1.0938 6.25zm50-16.594c-0.53125 0.80078-0.99219 1.6484-1.3984 2.5312h-4.8516v-6.25h6.25zm15.625 25.969c-8.6172 0-15.625-7.0078-15.625-15.625s7.0078-15.625 15.625-15.625 15.625 7.0078 15.625 15.625-7.0078 15.625-15.625 15.625z"/>
 <path d="m83.27 71.941-9.0508 9.0508-4.3633-4.3633c-0.60938-0.60938-1.5977-0.60938-2.2109 0-0.60938 0.60938-0.60938 1.5977 0 2.2109l5.4688 5.4688c0.30469 0.30469 0.70312 0.45703 1.1055 0.45703 0.39844 0 0.80078-0.15234 1.1055-0.45703l10.156-10.156c0.60938-0.60938 0.60938-1.5977 0-2.2109-0.61328-0.60938-1.5977-0.60938-2.2109 0z"/>
<text x="0.0" y="117.5" font-size="5.0" font-weight="bold" font-family="Arbeit Regular, Helvetica, Arial-Unicode, Arial, Sans-serif" fill="#000000">Created by Satria Arnata</text><text x="0.0" y="122.5" font-size="5.0" font-weight="bold" font-family="Arbeit Regular, Helvetica, Arial-Unicode, Arial, Sans-serif" fill="#000000">from Noun Project</text></svg>