<svg xmlns="http://www.w3.org/2000/svg" version="1.1" viewBox="-5.0 -10.0 110.0 135.0">
 <path d="m90.254 9.5586h-6.4062l-0.003906-5.6367c0-0.67969-0.54688-1.2266-1.2266-1.2266h-22.73c-0.67969 0-1.2266 0.54688-1.2266 1.2266v5.6328l-16.953 0.003906v-5.6367c0-0.67969-0.54688-1.2266-1.2266-1.2266h-22.73c-0.67969 0-1.2266 0.54688-1.2266 1.2266v5.6328l-6.7773 0.003906c-4.0586 0-7.3594 3.3008-7.3594 7.3594v65.164c0 3.332 2.2266 6.1484 5.2656 7.0547v6.9375c0 0.67969 0.54688 1.2266 1.2266 1.2266h82.52c0.67969 0 1.2266-0.54688 1.2266-1.2266v-7.0273c2.8984-0.98828 4.9883-3.7344 4.9883-6.9609v-65.164c0-4.0625-3.3008-7.3633-7.3594-7.3633zm-29.141-4.4062h20.277v4.4062h-20.277zm-42.137 0h20.277v4.4062h-20.277zm-9.2305 6.8594h80.508c2.7031 0 4.9062 2.2031 4.9062 4.9062v7.1914l-90.32 0.003906v-7.1914c0-2.707 2.2031-4.9102 4.9062-4.9102zm0.36328 82.836v-5.4023h80.062v5.4023zm80.145-7.8555h-80.508c-2.7031 0-4.9062-2.2031-4.9062-4.9062v-55.52h90.32v55.52c0 2.7031-2.2031 4.9062-4.9062 4.9062z"/>
 <path d="m22.188 22.223c2.4844 0 4.5078-2.0234 4.5078-4.5078s-2.0234-4.5078-4.5078-4.5078-4.5078 2.0195-4.5078 4.5078c0 2.4844 2.0234 4.5078 4.5078 4.5078zm0-6.5586c1.1328 0 2.0547 0.92188 2.0547 2.0508 0 1.1328-0.92188 2.0547-2.0547 2.0547s-2.0547-0.92188-2.0547-2.0547c0-1.1289 0.92188-2.0508 2.0547-2.0508z"/>
 <path d="m35.84 22.223c2.4844 0 4.5039-2.0234 4.5039-4.5078s-2.0195-4.5078-4.5039-4.5078-4.5078 2.0195-4.5078 4.5078c0 2.4844 2.0234 4.5078 4.5078 4.5078zm0-6.5586c1.1328 0 2.0508 0.92188 2.0508 2.0508 0 1.1328-0.92188 2.0547-2.0508 2.0547-1.1328 0-2.0547-0.92188-2.0547-2.0547 0-1.1289 0.92188-2.0508 2.0547-2.0508z"/>
 <path d="m64.539 22.223c2.4844 0 4.5078-2.0234 4.5078-4.5078s-2.0234-4.5078-4.5078-4.5078c-2.4844 0-4.5039 2.0195-4.5039 4.5078 0 2.4844 2.0195 4.5078 4.5039 4.5078zm0-6.5586c1.1328 0 2.0547 0.92188 2.0547 2.0508 0 1.1328-0.92188 2.0547-2.0547 2.0547-1.1328 0-2.0508-0.92188-2.0508-2.0547 0.003907-1.1289 0.92188-2.0508 2.0508-2.0508z"/>
 <path d="m78.195 22.223c2.4844 0 4.5078-2.0234 4.5078-4.5078s-2.0234-4.5078-4.5078-4.5078c-2.4844 0-4.5078 2.0195-4.5078 4.5078 0 2.4844 2.0234 4.5078 4.5078 4.5078zm0-6.5586c1.1328 0 2.0547 0.92188 2.0547 2.0508 0 1.1328-0.92188 2.0547-2.0547 2.0547-1.1328 0-2.0547-0.92188-2.0547-2.0547 0-1.1289 0.92188-2.0508 2.0547-2.0508z"/>
 <path d="m85.25 35.133h-70.34c-0.67969 0-1.2266 0.54688-1.2266 1.2266v7.1367c0 0.67969 0.54688 1.2266 1.2266 1.2266h3.6484v30.961c0 2.6992 2.043 4.8945 4.5547 4.8945h53.871c2.5117 0 4.5547-2.1953 4.5547-4.8945v-30.961h3.7148c0.67969 0 1.2266-0.54688 1.2266-1.2266v-7.1367c-0.003907-0.67969-0.55078-1.2266-1.2305-1.2266zm-6.168 40.551c0 1.3438-0.94141 2.4375-2.1016 2.4375l-53.871 0.003906c-1.1562 0-2.0977-1.0938-2.0977-2.4375v-30.965h58.07zm4.9414-33.414h-67.887v-4.6836h67.887z"/>
 <path d="m36.758 48.043 1.7969 1.6719-10.539 11.344-1.7969-1.6719z"/>
 <path d="m44.695 50.91-15.695 16.551-1.7812-1.6914 15.695-16.551z"/>
<text x="0.0" y="117.5" font-size="5.0" font-weight="bold" font-family="Arbeit Regular, Helvetica, Arial-Unicode, Arial, Sans-serif" fill="#000000">Created by Adnan Thariq</text><text x="0.0" y="122.5" font-size="5.0" font-weight="bold" font-family="Arbeit Regular, Helvetica, Arial-Unicode, Arial, Sans-serif" fill="#000000">from Noun Project</text></svg>