<svg xmlns="http://www.w3.org/2000/svg" xmlns:xlink="http://www.w3.org/1999/xlink" version="1.1" x="0px" y="0px" viewBox="0 0 3873 4841.25" style="enable-background:new 0 0 3873 3873;" xml:space="preserve"><g><g><g><path d="M2419,2794.7l-742.1-5c-33.4-0.2-60.3-27.5-60.1-60.9c0.2-32.7,26.5-60.1,60.9-60.1l742.1,5     c84.7,0.6,155.4-67.2,156-153.9c0.6-84.7-67.2-155.4-153.9-156l-306.9-2.1c-98.6-0.7-194.9-28.8-278.4-81.4l-188.8-119     c-64.4-40.6-138.6-62.3-214.7-62.8l-551.1-3.7c-33.4-0.2-60.3-27.5-60.1-60.9c0.2-32.7,26.5-60.1,60.9-60.1l551.1,3.7     c98.7,0.7,194.9,28.8,278.4,81.4l188.8,119c64.4,40.6,138.6,62.3,214.7,62.8l306.9,2.1c151.6,1,275.1,124.4,274.1,277.8     C2695.8,2669,2576.8,2794.7,2419,2794.7z"/></g><g><path d="M1766.7,3451.2c-117.5-20.1-230.2-71.5-325.9-148.7c-158.3-127.5-360-233.8-564.7-233.8c-33.3,0.2-60.7-26.7-60.9-60.1     c-0.2-33.4,26.7-60.7,60.1-60.9c234.5,0,461.9,115.8,641.5,260.6c79.7,64.2,173.1,107,270.3,123.6     c204.3,35,358.8-25.3,432.7-64.3c178.6-94.3,195.9-91.3,1261.3-552.2c0.3-0.1,0.6-0.2,0.8-0.4c57.9-23.9,95.6-79.7,96-142.3     c0.5-111.5-112.5-186.1-214.1-144.2l-843.9,347.7c-30.9,12.7-66.3-2-79-32.9s2-66.3,32.9-79l843.9-347.7     c182.7-75.4,382.3,60.5,381.2,257c-0.7,111.3-67.6,210.6-170.5,253.2c-1076,465.3-1081,457.4-1252.2,547.8     C2134.1,3450,1954.2,3483.3,1766.7,3451.2z"/></g><g><path d="M807,3257.8L807,3257.8l-506.4-3.4c-70.3-0.5-127.1-58.1-126.7-128.4l8.2-1211.4c0.5-70.3,58-127.1,128.4-126.7     l506.4,3.4c70.8,0.4,127.2,58.4,126.6,128.4l-8.2,1211.4C934.9,3198.1,881.2,3257.8,807,3257.8z M309.7,1909     c-3.6,0-6.5,2.9-6.5,6.4L295,3126.9c0,3.6,2.9,6.5,6.4,6.5c540.6,3,507.4,5.1,511,1.5c3.5-3.5,0.9,49.4,10.1-1216     c0-3.6-2.9-6.5-6.4-6.5L309.7,1909L309.7,1909z"/></g></g><g><path d="M2829.8,1929c-361.6,0-650.4-293.4-650.4-650.4c0-464.8,475.4-780.3,903.6-599.3c236.4,100,397.2,332.9,397.2,599.3    C3480.2,1639.9,3187,1929,2829.8,1929z M2829.8,749.3c-291.9,0-529.4,237.5-529.4,529.4s237.5,529.4,529.4,529.4    s529.4-237.5,529.4-529.4S3121.7,749.3,2829.8,749.3z"/></g><g><path d="M2215.2,1893.3c-338.1-338.1-340.7-888.5,0-1229.2C2651.3,228,3391.4,373.9,3630.6,940.4    c186.3,440.8-19.9,952.2-462.5,1139.1C2847.4,2215.1,2469.1,2147.2,2215.2,1893.3z M2829.8,530.5    c-412.5,0-748.1,335.6-748.1,748.1s335.6,748.1,748.1,748.1s748.1-335.6,748.1-748.1S3242.4,530.5,2829.8,530.5z"/></g><g><path d="M2851.9,1555.5h-152.4c-33.4,0-60.5-27.1-60.5-60.5s27.1-60.5,60.5-60.5h152.4c12.7,0,24.7-5,33.7-14    c30-30,8.6-81.5-33.6-81.5h-44.3c-93.1,0-168.8-75.6-168.8-168.6s75.7-168.6,168.8-168.6h152.4c33.4,0,60.5,27.1,60.5,60.5    s-27.1,60.5-60.5,60.5h-152.4c-26.3,0-47.8,21.4-47.8,47.6s21.4,47.6,47.8,47.6h44.3c93,0,168.6,75.7,168.6,168.8    C3020.6,1479.8,2945.2,1555.5,2851.9,1555.5z"/></g><g><path d="M2829.8,1122.7c-33.4,0-60.5-27.1-60.5-60.5V900.5c0-33.4,27.1-60.5,60.5-60.5s60.5,27.1,60.5,60.5v161.8    C2890.3,1095.7,2863.2,1122.7,2829.8,1122.7z"/></g><g><path d="M2829.8,1717.3c-33.4,0-60.5-27.1-60.5-60.5V1495c0-33.4,27.1-60.5,60.5-60.5s60.5,27.1,60.5,60.5v161.8    C2890.3,1690.2,2863.2,1717.3,2829.8,1717.3z"/></g></g><text x="0" y="3888" fill="#000000" font-size="5px" font-weight="bold" font-family="'Helvetica Neue', Helvetica, Arial-Unicode, Arial, Sans-serif">Created by Graphixs_Art</text><text x="0" y="3893" fill="#000000" font-size="5px" font-weight="bold" font-family="'Helvetica Neue', Helvetica, Arial-Unicode, Arial, Sans-serif">from the Noun Project</text></svg>