<svg xmlns="http://www.w3.org/2000/svg" version="1.1" viewBox="-5.0 -10.0 110.0 135.0">
 <path d="m81.105 52.898c-0.066407-0.41016-0.375-0.73828-0.78125-0.82422l-5.4297-1.1484c-0.57031-2.1055-1.4102-4.1211-2.4883-6.0117l3.0234-4.6484c0.22656-0.35156 0.21484-0.80078-0.03125-1.1367-1.4609-1.9961-3.1562-3.8086-5.0391-5.4102v-13.668c0-0.55078-0.44922-1-1-1-7.8711 0-13.785-2.5117-18.609-7.8984-0.19141-0.21094-0.46094-0.33594-0.74609-0.33594s-0.55469 0.12109-0.74609 0.33594c-4.8281 5.3867-10.738 7.8984-18.609 7.8984-0.55078 0-1 0.44922-1 1v13.66c-1.8867 1.6016-3.5781 3.4219-5.0391 5.4102-0.24609 0.33594-0.26172 0.78906-0.03125 1.1367l3.0234 4.6484c-1.0859 1.8906-1.9219 3.9102-2.4883 6.0117l-5.4297 1.1484c-0.40625 0.085938-0.71875 0.41406-0.78125 0.82422-0.48828 3.1953-0.48828 6.4297 0 9.625 0.066406 0.41016 0.375 0.73828 0.78125 0.82422l5.4297 1.1484c0.57031 2.1055 1.4102 4.1211 2.4883 6.0117l-3.0234 4.6484c-0.22656 0.35156-0.21484 0.80078 0.03125 1.1367 1.9102 2.6055 4.1992 4.8945 6.8047 6.8047 0.33594 0.24609 0.78906 0.26172 1.1367 0.03125l4.6484-3.0234c1.8906 1.0859 3.9102 1.9219 6.0117 2.4883l1.1484 5.4297c0.085937 0.40625 0.41406 0.71875 0.82422 0.78125 1.5938 0.24609 3.2031 0.37109 4.8086 0.37109 1.6094 0 3.2148-0.125 4.8086-0.37109 0.41016-0.066406 0.73828-0.375 0.82422-0.78125l1.1484-5.4297c2.1055-0.57031 4.1211-1.4102 6.0117-2.4883l4.6484 3.0234c0.35156 0.22656 0.80078 0.21484 1.1367-0.03125 2.6055-1.9102 4.8945-4.1992 6.8047-6.8047 0.24609-0.33594 0.26172-0.78906 0.03125-1.1367l-3.0234-4.6484c1.0859-1.8906 1.9219-3.9102 2.4883-6.0117l5.4297-1.1484c0.40625-0.085938 0.71875-0.41406 0.78125-0.82422 0.51172-3.1875 0.51172-6.4258 0.023438-9.6172zm-49.461-31.859c7.5938-0.19922 13.477-2.6797 18.355-7.75 4.8789 5.0703 10.762 7.5508 18.355 7.75v16.434c0 6.6992-2.7148 12.07-2.7344 12.125-3.0664 6.0742-8.5469 10.355-15.613 11.77-7.0703-1.4219-12.551-5.6992-15.613-11.77-0.019531-0.054687-2.7344-6.0586-2.7344-12.125l-0.003906-16.434zm35.617 36.672c0 9.5195-7.7461 17.262-17.262 17.262-9.5195 0-17.262-7.7461-17.262-17.262 0-1.8594 0.28906-3.6758 0.86328-5.4102 0.42969 0.69922 0.88672 1.375 1.3789 2.0234 3.6016 4.7461 8.7266 7.875 14.828 9.0508 0.058594 0.011719 0.125 0.019531 0.19141 0.019531s0.125-0.003906 0.19141-0.019531c6.1055-1.1758 11.23-4.3047 14.828-9.0508 0.48828-0.64844 0.94922-1.3242 1.3789-2.0234 0.57031 1.7344 0.86328 3.5508 0.86328 5.4102zm11.965 3.8242-5.3516 1.1367c-0.375 0.078125-0.67188 0.36328-0.76562 0.73828-0.57422 2.3281-1.4961 4.5547-2.7344 6.6055-0.19922 0.32812-0.19141 0.73828 0.015625 1.0664l2.9805 4.5859c-1.5664 2.0312-3.3789 3.8516-5.4141 5.4141l-4.5859-2.9805c-0.32031-0.21094-0.73438-0.21484-1.0664-0.015624-2.0547 1.2461-4.2734 2.1641-6.6055 2.7344-0.375 0.089844-0.66016 0.39063-0.73828 0.76563l-1.1367 5.3516c-2.5391 0.32812-5.1094 0.32812-7.6562 0l-1.1367-5.3516c-0.078125-0.375-0.36328-0.67188-0.73828-0.76563-2.3281-0.57422-4.5547-1.4961-6.6055-2.7344-0.32812-0.19922-0.73828-0.19141-1.0664 0.015624l-4.5859 2.9805c-2.0312-1.5664-3.8516-3.3789-5.4141-5.4141l2.9805-4.5859c0.21094-0.32031 0.21484-0.73438 0.015626-1.0664-1.2461-2.0547-2.1641-4.2734-2.7344-6.6055-0.089843-0.375-0.39062-0.66016-0.76562-0.73828l-5.3516-1.1367c-0.32812-2.5391-0.32812-5.1094 0-7.6562l5.3516-1.1367c0.375-0.078126 0.67187-0.36328 0.76562-0.73828 0.57422-2.3281 1.4961-4.5547 2.7344-6.6055 0.19922-0.32813 0.19141-0.73828-0.015626-1.0664l-2.9766-4.582c0.91406-1.1914 1.9258-2.3086 3.0117-3.3516v1.0703c0 3.1836 0.46094 6.2539 1.3633 9.1133 0.375 1.1797 0.82031 2.3086 1.3398 3.3984-1.0703 2.4414-1.6094 5.0352-1.6094 7.7188 0 2.6016 0.51172 5.1211 1.5156 7.5 0.96875 2.2969 2.3594 4.3555 4.125 6.1211 1.7695 1.7695 3.8281 3.1562 6.1211 4.125 2.375 1.0039 4.8984 1.5156 7.5 1.5156 2.6016 0 5.1211-0.51172 7.5-1.5156 2.2969-0.96875 4.3555-2.3594 6.1211-4.125 1.7695-1.7695 3.1562-3.8281 4.1289-6.1211 1.0039-2.375 1.5156-4.8984 1.5156-7.5 0-2.6914-0.53906-5.2852-1.6094-7.7188 0.51953-1.0859 0.96484-2.2188 1.3398-3.3984 0.90625-2.8594 1.3633-5.9258 1.3633-9.1133v-1.0703c1.0859 1.0391 2.0938 2.1602 3.0117 3.3516l-2.9805 4.5859c-0.21094 0.32031-0.21484 0.73437-0.015624 1.0664 1.2461 2.0547 2.1641 4.2734 2.7344 6.6055 0.089844 0.375 0.39063 0.66016 0.76563 0.73828l5.3516 1.1367c0.33594 2.543 0.33594 5.1133 0.007812 7.6523z"/>
 <path d="m49.77 58.684c0.074219 0.019531 0.14844 0.023437 0.23047 0.023437 0.074219 0 0.15625-0.011719 0.23047-0.023437 4.8281-1.1406 8.8281-3.8047 11.574-7.7188 2.6016-3.7109 3.9766-8.375 3.9766-13.488v-13.113c0-0.50391-0.37891-0.92969-0.87891-0.99609-5.5312-0.66406-10.195-2.6211-14.262-5.9766-0.37109-0.30469-0.90625-0.30469-1.2734 0-4.0664 3.3633-8.7305 5.3203-14.262 5.9844-0.5 0.058594-0.87891 0.48438-0.87891 0.99609v13.105c0 5.1133 1.375 9.7812 3.9766 13.488 2.7383 3.9102 6.7383 6.582 11.566 7.7188zm-13.543-33.438c5.2578-0.76953 9.7773-2.6719 13.773-5.7969 3.9961 3.1211 8.5156 5.0234 13.773 5.7891v12.23c0 9.7617-5.2695 17.094-13.773 19.203-8.5039-2.1094-13.773-9.4453-13.773-19.203z"/>
 <path d="m46.105 43.355c0.17578 0.19922 0.42578 0.32031 0.69141 0.33594h0.058594c0.24609 0 0.48047-0.089844 0.66406-0.25l10.691-9.5c0.41406-0.36328 0.44922-1 0.085937-1.4102-0.36328-0.41406-1-0.44922-1.4102-0.085938l-9.9453 8.8281-3.7422-4.2031c-0.36328-0.41406-1-0.44922-1.4102-0.085937-0.41406 0.36328-0.44922 1-0.085937 1.4102z"/>
<text x="0.0" y="117.5" font-size="5.0" font-weight="bold" font-family="Arbeit Regular, Helvetica, Arial-Unicode, Arial, Sans-serif" fill="#000000">Created by Adi Waluyo Noto Carito</text><text x="0.0" y="122.5" font-size="5.0" font-weight="bold" font-family="Arbeit Regular, Helvetica, Arial-Unicode, Arial, Sans-serif" fill="#000000">from Noun Project</text></svg>