<svg xmlns="http://www.w3.org/2000/svg" version="1.1" viewBox="-5.0 -10.0 110.0 135.0">
 <path d="m78.188 7.8125h-53.062c-4.5156 0-8.2031 3.6719-8.2031 8.2031v5.3438c-1.9219 0.65625-3.3125 2.4531-3.3125 4.5938v4.9688c0 2.1406 1.3906 3.9375 3.3125 4.5938v27.281c-1.9219 0.65625-3.3125 2.4531-3.3125 4.5938v4.9688c0 2.1406 1.3906 3.9375 3.3125 4.5938v7.0156c0 4.5156 3.6719 8.2031 8.2031 8.2031h53.062c4.5156 0 8.2031-3.6719 8.2031-8.2031v-67.953c0-4.5156-3.6719-8.2031-8.2031-8.2031zm-61.453 18.141c0-0.96875 0.78125-1.75 1.75-1.75s1.75 0.78125 1.75 1.75v4.9688c0 0.96875-0.78125 1.75-1.75 1.75s-1.75-0.78125-1.75-1.75zm0 41.453c0-0.96875 0.78125-1.75 1.75-1.75s1.75 0.78125 1.75 1.75v4.9688c0 0.96875-0.78125 1.75-1.75 1.75s-1.75-0.78125-1.75-1.75zm66.531 16.578c0 2.7969-2.2812 5.0781-5.0781 5.0781h-53.062c-2.7969 0-5.0781-2.2812-5.0781-5.0781v-7.0156c1.9219-0.65625 3.3125-2.4531 3.3125-4.5938v-4.9688c0-2.1406-1.3906-3.9375-3.3125-4.5938v-27.281c1.9219-0.65625 3.3125-2.4531 3.3125-4.5938v-4.9688c0-2.1406-1.3906-3.9375-3.3125-4.5938v-5.3438c0-2.7969 2.2812-5.0781 5.0781-5.0781h53.062c2.7969 0 5.0781 2.2812 5.0781 5.0781v67.984z"/>
 <path d="m73.219 16.109h-43.109c-2.6875 0-4.875 2.1875-4.875 4.875v58.031c0 2.6875 2.1875 4.875 4.875 4.875h43.109c2.6875 0 4.875-2.1875 4.875-4.875v-58.031c0-2.6875-2.1875-4.875-4.875-4.875zm-10.047 39.688c0-1.875 1.5312-3.4062 3.4062-3.4062s3.4062 1.5312 3.4062 3.4062-1.5312 3.4062-3.4062 3.4062-3.4062-1.5312-3.4062-3.4062zm3.4062-6.5312c-3.6094 0-6.5312 2.9375-6.5312 6.5312 0 1.25 0.375 2.4219 0.98438 3.4062h-3.8281c0.60938-1 0.98438-2.1562 0.98438-3.4062 0-3.6094-2.9375-6.5312-6.5312-6.5312s-6.5312 2.9375-6.5312 6.5312c0 1.25 0.375 2.4219 0.98438 3.4062h-3.8281c0.60938-1 0.98438-2.1562 0.98438-3.4062 0-3.6094-2.9375-6.5312-6.5312-6.5312s-6.5312 2.9375-6.5312 6.5312c0 1.25 0.375 2.4219 0.98438 3.4062h-2.8438v-18.438h46.625v18.438h-2.8438c0.60938-1 0.98438-2.1562 0.98438-3.4062 0-3.6094-2.9375-6.5312-6.5312-6.5312zm-18.328 6.5312c0-1.875 1.5312-3.4062 3.4062-3.4062s3.4062 1.5312 3.4062 3.4062-1.5312 3.4062-3.4062 3.4062-3.4062-1.5312-3.4062-3.4062zm-14.922 0c0-1.875 1.5312-3.4062 3.4062-3.4062s3.4062 1.5312 3.4062 3.4062-1.5312 3.4062-3.4062 3.4062-3.4062-1.5312-3.4062-3.4062zm0-21.547c0-1.875 1.5312-3.4062 3.4062-3.4062s3.4062 1.5312 3.4062 3.4062-1.5312 3.4062-3.4062 3.4062-3.4062-1.5312-3.4062-3.4062zm14.922 0c0-1.875 1.5312-3.4062 3.4062-3.4062s3.4062 1.5312 3.4062 3.4062-1.5312 3.4062-3.4062 3.4062-3.4062-1.5312-3.4062-3.4062zm14.922 0c0-1.875 1.5312-3.4062 3.4062-3.4062s3.4062 1.5312 3.4062 3.4062-1.5312 3.4062-3.4062 3.4062-3.4062-1.5312-3.4062-3.4062zm-33.062-15.016h43.109c0.96875 0 1.75 0.78125 1.75 1.75v16.672h-2.8438c0.60938-1 0.98438-2.1562 0.98438-3.4062 0-3.6094-2.9375-6.5312-6.5312-6.5312s-6.5312 2.9375-6.5312 6.5312c0 1.25 0.375 2.4219 0.98438 3.4062h-3.8281c0.60938-1 0.98438-2.1562 0.98438-3.4062 0-3.6094-2.9375-6.5312-6.5312-6.5312s-6.5312 2.9375-6.5312 6.5312c0 1.25 0.375 2.4219 0.98438 3.4062h-3.8281c0.60938-1 0.98438-2.1562 0.98438-3.4062 0-3.6094-2.9375-6.5312-6.5312-6.5312s-6.5312 2.9375-6.5312 6.5312c0 1.25 0.375 2.4219 0.98438 3.4062h-2.8438v-16.672c0-0.96875 0.78125-1.75 1.75-1.75zm3.2188 58.125c0-1.875 1.5312-3.4062 3.4062-3.4062s3.4062 1.5312 3.4062 3.4062-1.5312 3.4062-3.4062 3.4062-3.4062-1.5312-3.4062-3.4062zm14.922 0c0-1.875 1.5312-3.4062 3.4062-3.4062s3.4062 1.5312 3.4062 3.4062-1.5312 3.4062-3.4062 3.4062-3.4062-1.5312-3.4062-3.4062zm14.922 0c0-1.875 1.5312-3.4062 3.4062-3.4062s3.4062 1.5312 3.4062 3.4062-1.5312 3.4062-3.4062 3.4062-3.4062-1.5312-3.4062-3.4062zm10.047 3.4062h-1.0781c0.60938-1 0.98438-2.1562 0.98438-3.4062 0-3.6094-2.9375-6.5312-6.5312-6.5312s-6.5312 2.9375-6.5312 6.5312c0 1.25 0.375 2.4219 0.98438 3.4062h-3.8281c0.60938-1 0.98438-2.1562 0.98438-3.4062 0-3.6094-2.9375-6.5312-6.5312-6.5312s-6.5312 2.9375-6.5312 6.5312c0 1.25 0.375 2.4219 0.98438 3.4062h-3.8281c0.60938-1 0.98438-2.1562 0.98438-3.4062 0-3.6094-2.9375-6.5312-6.5312-6.5312s-6.5312 2.9375-6.5312 6.5312c0 1.25 0.375 2.4219 0.98438 3.4062h-1.0781c-0.96875 0-1.75-0.78125-1.75-1.75v-16.672h46.625v16.672c0 0.96875-0.78125 1.75-1.75 1.75z"/>
<text x="0.0" y="117.5" font-size="5.0" font-weight="bold" font-family="Arbeit Regular, Helvetica, Arial-Unicode, Arial, Sans-serif" fill="#000000">Created by Yosua Bungaran</text><text x="0.0" y="122.5" font-size="5.0" font-weight="bold" font-family="Arbeit Regular, Helvetica, Arial-Unicode, Arial, Sans-serif" fill="#000000">from Noun Project</text></svg>